<?xml version="1.0" standalone="no"?>
<!DOCTYPE svg PUBLIC "-//W3C//DTD SVG 20010904//EN"
 "http://www.w3.org/TR/2001/REC-SVG-20010904/DTD/svg10.dtd">
<svg version="1.0" xmlns="http://www.w3.org/2000/svg"
 width="952.000000pt" height="612.000000pt" viewBox="0 0 952.000000 612.000000"
 preserveAspectRatio="xMidYMid meet">

<g transform="translate(0.000000,612.000000) scale(0.100000,-0.100000)"
fill="#000000" stroke="none">
<path d="M1904 5726 c-76 -33 -108 -151 -62 -231 32 -55 78 -78 146 -71 90 8
152 72 152 156 0 95 -63 160 -155 160 -27 -1 -64 -7 -81 -14z m147 -39 c37
-31 49 -58 49 -110 0 -112 -138 -167 -215 -87 -36 37 -45 111 -20 159 30 60
135 81 186 38z"/>
<path d="M3195 5511 c-92 -26 -189 -109 -237 -203 -36 -70 -68 -144 -68 -158
0 -6 -7 -24 -14 -39 -14 -27 -18 -28 -113 -34 -179 -11 -441 -85 -663 -189
-63 -30 -233 -130 -310 -184 -225 -156 -427 -376 -596 -649 -36 -58 -107 -201
-141 -285 -73 -177 -115 -345 -143 -568 -22 -175 -24 -266 -11 -377 5 -38 14
-113 21 -165 24 -196 89 -404 193 -620 219 -457 622 -838 1084 -1026 288 -117
523 -164 824 -164 265 0 480 38 737 132 289 105 574 288 786 507 43 44 85 81
92 81 8 0 64 -50 125 -111 432 -431 1007 -645 1639 -609 275 16 537 85 790
209 86 42 109 55 222 125 107 67 269 199 368 302 279 288 445 592 545 999 38
153 67 458 55 571 -4 38 -13 121 -19 184 -35 355 -201 747 -446 1055 -75 94
-233 254 -323 326 -400 322 -919 491 -1422 465 -230 -12 -337 -29 -505 -78
-205 -60 -405 -154 -604 -285 -81 -54 -287 -223 -304 -250 -4 -7 -12 -13 -17
-13 -13 0 -13 47 0 55 19 12 12 160 -11 222 -54 144 -129 202 -334 257 -27 8
-63 19 -80 24 -121 43 -178 55 -278 60 -97 4 -109 7 -119 26 -27 52 -89 113
-196 194 -262 196 -296 214 -412 218 -47 2 -98 -1 -115 -5z m179 -188 c56 -28
286 -194 281 -202 -2 -5 -26 -14 -52 -21 -193 -53 -334 -235 -332 -430 0 -49
23 -156 43 -202 11 -25 -3 -24 -145 17 -171 49 -228 79 -258 135 -36 64 -33
119 9 205 19 38 56 91 81 118 43 45 47 54 53 116 12 120 86 235 176 276 40 17
95 13 144 -12z m490 -377 c63 -31 118 -89 152 -161 19 -39 24 -67 24 -125 0
-86 -18 -132 -75 -198 -100 -114 -269 -139 -403 -59 -106 63 -167 205 -141
328 41 199 259 305 443 215z m423 -101 c67 -19 137 -41 155 -48 79 -33 138
-112 138 -185 0 -69 -77 -204 -141 -246 -38 -26 -39 -28 -39 -85 0 -110 -101
-265 -189 -292 -57 -17 -104 -1 -215 73 -153 102 -203 148 -160 148 38 0 152
68 209 125 131 130 169 284 116 461 -5 17 -17 43 -26 58 -17 26 -17 26 7 26
13 0 79 -16 145 -35z m2233 -16 c316 -41 628 -178 940 -411 82 -61 280 -267
280 -292 0 -3 -5 -6 -11 -6 -5 0 -7 5 -4 10 3 6 -3 10 -13 10 -22 0 -45 23
-34 34 4 5 0 6 -8 4 -9 -1 -15 0 -15 4 0 4 -11 15 -25 25 -14 10 -45 40 -70
67 -137 153 -227 220 -173 128 68 -115 145 -255 163 -297 12 -27 28 -66 37
-85 8 -19 19 -44 24 -55 13 -31 67 -225 75 -267 3 -21 9 -38 13 -38 3 0 7 -26
8 -57 2 -40 7 -60 18 -66 13 -7 14 -12 4 -23 -8 -10 -8 -14 0 -14 6 0 11 -7
11 -16 0 -8 -4 -12 -10 -9 -5 3 -10 2 -10 -4 0 -5 6 -12 13 -14 9 -4 9 -7 0
-14 -10 -7 -10 -21 -1 -69 13 -60 37 -101 46 -76 6 20 21 4 15 -19 l-6 -20
-21 20 -22 21 -1 -35 c-1 -24 3 -35 13 -35 8 0 14 -5 14 -11 0 -5 -5 -7 -12
-3 -6 4 -8 3 -4 -4 3 -6 1 -14 -5 -17 -5 -4 -9 -24 -8 -44 2 -20 0 -41 -2 -46
-3 -6 -7 -31 -8 -57 -2 -40 1 -48 16 -49 17 -1 17 -2 1 -6 -10 -2 -18 -9 -18
-14 0 -8 6 -10 43 -13 6 -1 18 -13 26 -28 7 -16 20 -28 27 -28 8 0 14 -5 14
-10 0 -6 3 -9 8 -8 4 1 23 -12 42 -30 32 -29 33 -32 12 -32 -12 0 -22 4 -22 9
0 5 -18 16 -40 25 -22 9 -40 20 -40 26 0 5 -7 10 -15 10 -8 0 -45 16 -82 35
-276 145 -820 356 -1183 460 -52 15 -115 33 -140 41 -45 13 -87 23 -295 70
-252 57 -556 106 -805 129 -243 23 -237 22 -243 48 -14 62 -106 255 -185 389
l-51 88 38 47 c108 137 360 333 566 440 318 165 732 233 1115 182z m-4044
-151 c-182 -558 -481 -952 -976 -1286 -96 -65 -314 -182 -339 -182 -6 0 -9 12
-6 28 2 15 10 61 16 102 16 109 98 348 162 476 170 339 402 583 747 786 156
92 392 187 414 167 5 -5 -2 -43 -18 -91z m273 -163 c75 -101 150 -147 309
-194 85 -26 84 -18 20 -165 -135 -311 -270 -517 -483 -734 -300 -308 -598
-485 -1030 -611 -158 -46 -404 -96 -416 -84 -4 4 -13 50 -19 102 -10 76 -9 96
2 106 7 6 51 27 98 45 550 213 1013 628 1294 1160 67 128 156 333 156 361 0
23 17 59 28 59 4 0 22 -21 41 -45z m757 -284 c6 0 34 -30 62 -65 65 -81 311
-268 431 -328 79 -39 89 -41 170 -41 72 0 96 4 141 25 92 42 198 151 216 221
8 33 24 34 43 5 122 -193 193 -328 182 -347 -13 -20 -256 -107 -411 -147 -402
-103 -781 -95 -1228 25 -48 13 -50 2 22 124 68 115 143 266 195 397 26 63 49
120 53 125 5 8 82 12 124 6z m4361 -271 c55 -95 84 -152 80 -157 -8 -7 -49 56
-43 65 3 5 -6 20 -19 32 -14 13 -25 28 -25 34 0 6 -9 17 -20 24 -12 7 -18 17
-15 21 3 5 -6 23 -20 39 -13 16 -21 32 -17 36 8 9 43 -33 79 -94z m110 -232
c-3 -8 -6 -5 -6 6 -1 11 2 17 5 13 3 -3 4 -12 1 -19z m46 -90 c56 -141 122
-458 95 -458 -4 0 -8 12 -8 26 0 19 -4 25 -15 20 -10 -3 -17 3 -21 20 -4 14
-4 28 0 31 3 4 -1 18 -11 32 -15 24 -15 25 0 12 24 -19 22 4 -3 29 -11 11 -15
22 -10 25 6 4 10 1 10 -6 0 -7 3 -10 6 -7 9 9 -16 49 -26 43 -5 -3 -11 -1 -15
5 -3 5 1 10 9 10 18 0 21 15 6 25 -5 3 -7 19 -3 35 4 23 2 30 -11 30 -9 0 -16
5 -16 10 0 6 5 10 12 10 6 0 1 11 -11 24 -21 22 -21 25 -6 34 12 6 14 11 6 16
-6 4 -11 20 -11 37 0 16 -4 29 -9 29 -5 0 -11 7 -15 15 -3 9 0 15 8 15 8 0 25
-28 39 -62z m-273 10 c0 -13 -23 -5 -28 10 -2 7 2 10 12 6 9 -3 16 -11 16 -16z
m0 -78 c0 -5 -5 -10 -11 -10 -5 0 -7 5 -4 10 3 6 8 10 11 10 2 0 4 -4 4 -10z
m-2901 -143 c19 -50 52 -278 58 -397 7 -156 -15 -341 -62 -525 -58 -223 -135
-397 -267 -597 -64 -97 -111 -153 -222 -263 -205 -204 -366 -314 -611 -414
-129 -53 -377 -121 -515 -142 -51 -7 -150 -10 -268 -6 -191 5 -271 16 -457 68
-422 116 -805 393 -1055 764 -28 41 -50 76 -50 79 0 2 -16 33 -36 68 -67 117
-184 411 -170 425 3 3 62 13 133 24 70 11 162 27 203 35 473 100 910 348 1269
719 l113 117 102 -30 c568 -172 1169 -152 1691 56 118 48 133 49 144 19z m626
-82 c444 -62 1012 -207 1475 -374 291 -106 750 -320 1006 -471 l122 -72 -39
-100 c-170 -435 -450 -773 -826 -994 -541 -318 -1199 -342 -1779 -63 -205 98
-398 241 -563 416 -77 81 -81 87 -67 107 35 48 115 193 121 219 4 15 10 27 14
27 4 0 18 -26 30 -57 191 -475 597 -759 1111 -780 204 -8 348 19 535 99 175
75 378 249 488 418 53 82 91 159 83 167 -2 2 -63 10 -136 18 -600 67 -1239
228 -1820 458 -111 43 -135 57 -134 73 2 35 64 385 69 395 4 5 46 9 94 9 128
0 220 -34 311 -115 28 -25 62 -48 76 -51 77 -19 164 40 164 112 0 53 -26 99
-87 154 -110 98 -279 159 -455 165 -54 2 -102 6 -106 9 -5 3 -14 54 -21 113
-7 59 -14 120 -16 134 -2 15 -2 29 0 31 3 2 55 -3 117 -13 62 -9 167 -24 233
-34z m2311 -163 c-12 -11 -18 7 -10 30 l8 23 4 -23 c2 -13 1 -26 -2 -30z m362
-187 c4 -111 3 -125 -12 -125 -9 0 -16 5 -16 10 0 6 5 10 10 10 6 0 10 5 10
11 0 5 -5 7 -11 3 -8 -5 -10 3 -7 24 2 17 2 33 -2 34 -3 2 -4 43 -2 91 6 130
24 95 30 -58z m-168 -199 c-6 -6 -15 -4 -25 4 -23 19 -18 29 9 17 15 -7 21
-16 16 -21z m85 -26 c-3 -5 0 -12 6 -16 7 -4 9 -3 5 4 -3 6 -2 13 3 16 13 9
22 -9 15 -28 -5 -14 -9 -14 -37 1 -25 13 -28 18 -14 21 9 2 14 8 11 14 -4 7
-2 8 5 4 6 -4 9 -11 6 -16z m-2816 -550 c252 -105 659 -233 969 -305 211 -48
551 -108 662 -117 21 -2 36 -9 38 -18 1 -8 -31 -51 -71 -95 l-74 -79 -103 13
c-235 29 -691 132 -980 222 -272 84 -547 190 -564 217 -3 5 -12 49 -20 98 -8
49 -18 97 -21 107 -11 27 8 22 164 -43z"/>
<path d="M6293 4285 c-57 -16 -146 -55 -139 -62 2 -2 24 2 48 10 23 8 84 23
135 33 80 16 103 17 172 7 44 -7 95 -20 113 -29 18 -10 42 -18 53 -18 11 -1
19 -7 17 -14 -1 -8 2 -11 7 -8 5 4 12 2 16 -4 3 -6 25 -20 48 -31 40 -21 67
-42 67 -53 0 -3 -35 12 -77 33 -43 21 -98 46 -123 54 -73 24 -218 48 -258 42
-111 -17 -231 -47 -285 -73 -81 -37 -206 -139 -254 -205 -20 -29 -42 -55 -47
-59 -16 -11 -10 -12 135 -36 155 -26 449 -94 654 -152 186 -52 535 -167 552
-182 12 -9 13 -7 9 13 -3 13 -12 60 -22 104 -38 182 -126 364 -231 476 -63 68
-134 112 -230 143 -70 22 -99 26 -195 25 -63 0 -136 -6 -165 -14z"/>
<path d="M6428 4263 c7 -3 16 -2 19 1 4 3 -2 6 -13 5 -11 0 -14 -3 -6 -6z"/>
<path d="M3870 3096 c-190 -42 -359 -151 -394 -252 -15 -44 -15 -49 3 -90 20
-44 48 -68 94 -79 43 -11 72 2 138 60 130 116 312 145 475 76 70 -30 72 -30
117 -15 93 31 116 138 47 209 -83 85 -311 128 -480 91z"/>
<path d="M2271 2669 c-117 -30 -216 -84 -298 -163 -81 -76 -140 -176 -129
-219 11 -46 51 -92 91 -105 64 -21 105 -4 160 68 56 72 90 99 178 140 83 39
160 47 273 30 76 -12 88 -12 119 3 69 33 94 114 55 180 -35 58 -127 87 -280
86 -61 0 -122 -7 -169 -20z"/>
<path d="M4127 2290 c-14 -11 -40 -46 -58 -77 -119 -207 -381 -395 -666 -478
-329 -96 -617 -83 -882 39 -118 55 -127 57 -171 35 -96 -47 -122 -159 -54
-230 34 -35 161 -103 257 -135 109 -37 293 -64 439 -64 452 0 887 179 1173
481 108 115 195 256 195 316 0 33 -42 104 -71 118 -42 22 -131 19 -162 -5z"/>
<path d="M6720 2683 c-128 -21 -193 -87 -176 -176 16 -84 86 -117 194 -92 80
19 113 19 187 0 105 -27 145 -53 241 -151 90 -93 91 -94 139 -94 43 0 52 4 87
40 31 33 38 48 38 81 0 152 -237 342 -480 385 -72 13 -177 16 -230 7z"/>
<path d="M8440 4779 c6 -11 8 -34 5 -51 -5 -21 -4 -28 4 -24 20 13 11 96 -10
96 -6 0 -5 -9 1 -21z"/>
<path d="M4651 844 c0 -11 3 -14 6 -6 3 7 2 16 -1 19 -3 4 -6 -2 -5 -13z"/>
<path d="M4610 759 c0 -5 5 -7 10 -4 6 3 10 8 10 11 0 2 -4 4 -10 4 -5 0 -10
-5 -10 -11z"/>
<path d="M2090 460 c0 -5 5 -10 10 -10 6 0 10 5 10 10 0 6 -4 10 -10 10 -5 0
-10 -4 -10 -10z"/>
</g>
</svg>
